<mxfile host="app.diagrams.net" modified="2022-08-02T03:39:43.662Z" agent="5.0 (Windows NT 10.0; WOW64) AppleWebKit/537.36 (KHTML, like Gecko) Chrome/103.0.0.0 Safari/537.36" etag="8hUqSAbVcXXAfOUXW15E" version="20.2.2" type="github">
  <diagram name="Page-1" id="c7558073-3199-34d8-9f00-42111426c3f3">
    <mxGraphModel dx="1422" dy="762" grid="1" gridSize="10" guides="1" tooltips="1" connect="1" arrows="1" fold="1" page="1" pageScale="1" pageWidth="826" pageHeight="1169" background="none" math="0" shadow="0">
      <root>
        <mxCell id="0" />
        <mxCell id="1" parent="0" />
        <mxCell id="qwokKmORp5SJDhfPBc0i-99" value="" style="edgeStyle=orthogonalEdgeStyle;rounded=0;orthogonalLoop=1;jettySize=auto;html=1;" edge="1" parent="1" source="qwokKmORp5SJDhfPBc0i-97" target="qwokKmORp5SJDhfPBc0i-98">
          <mxGeometry relative="1" as="geometry" />
        </mxCell>
        <mxCell id="qwokKmORp5SJDhfPBc0i-97" value="开始" style="ellipse;whiteSpace=wrap;html=1;" vertex="1" parent="1">
          <mxGeometry x="100" y="80" width="120" height="60" as="geometry" />
        </mxCell>
        <mxCell id="qwokKmORp5SJDhfPBc0i-101" value="" style="edgeStyle=orthogonalEdgeStyle;rounded=0;orthogonalLoop=1;jettySize=auto;html=1;" edge="1" parent="1" source="qwokKmORp5SJDhfPBc0i-98" target="qwokKmORp5SJDhfPBc0i-100">
          <mxGeometry relative="1" as="geometry" />
        </mxCell>
        <mxCell id="qwokKmORp5SJDhfPBc0i-98" value="获取所有退出状态为空的试卷" style="whiteSpace=wrap;html=1;" vertex="1" parent="1">
          <mxGeometry x="100" y="220" width="120" height="60" as="geometry" />
        </mxCell>
        <mxCell id="qwokKmORp5SJDhfPBc0i-105" value="" style="edgeStyle=orthogonalEdgeStyle;rounded=0;orthogonalLoop=1;jettySize=auto;html=1;" edge="1" parent="1" source="qwokKmORp5SJDhfPBc0i-100" target="qwokKmORp5SJDhfPBc0i-104">
          <mxGeometry relative="1" as="geometry" />
        </mxCell>
        <mxCell id="qwokKmORp5SJDhfPBc0i-100" value="获取最后一次心跳时间" style="whiteSpace=wrap;html=1;" vertex="1" parent="1">
          <mxGeometry x="100" y="360" width="120" height="60" as="geometry" />
        </mxCell>
        <mxCell id="qwokKmORp5SJDhfPBc0i-107" value="" style="edgeStyle=orthogonalEdgeStyle;rounded=0;orthogonalLoop=1;jettySize=auto;html=1;" edge="1" parent="1" source="qwokKmORp5SJDhfPBc0i-104" target="qwokKmORp5SJDhfPBc0i-106">
          <mxGeometry relative="1" as="geometry" />
        </mxCell>
        <mxCell id="qwokKmORp5SJDhfPBc0i-110" value="" style="edgeStyle=orthogonalEdgeStyle;rounded=0;orthogonalLoop=1;jettySize=auto;html=1;" edge="1" parent="1" source="qwokKmORp5SJDhfPBc0i-104" target="qwokKmORp5SJDhfPBc0i-109">
          <mxGeometry relative="1" as="geometry" />
        </mxCell>
        <mxCell id="qwokKmORp5SJDhfPBc0i-104" value="当前时间大于最后一次心跳时间+30秒，就会被判定为意外退出" style="rhombus;whiteSpace=wrap;html=1;" vertex="1" parent="1">
          <mxGeometry x="80" y="470" width="160" height="100" as="geometry" />
        </mxCell>
        <mxCell id="qwokKmORp5SJDhfPBc0i-106" value="结束" style="ellipse;whiteSpace=wrap;html=1;" vertex="1" parent="1">
          <mxGeometry x="340" y="490" width="120" height="60" as="geometry" />
        </mxCell>
        <mxCell id="qwokKmORp5SJDhfPBc0i-108" value="否" style="text;html=1;align=center;verticalAlign=middle;resizable=0;points=[];autosize=1;strokeColor=none;fillColor=none;" vertex="1" parent="1">
          <mxGeometry x="270" y="495" width="40" height="30" as="geometry" />
        </mxCell>
        <mxCell id="qwokKmORp5SJDhfPBc0i-113" value="" style="edgeStyle=orthogonalEdgeStyle;rounded=0;orthogonalLoop=1;jettySize=auto;html=1;" edge="1" parent="1" source="qwokKmORp5SJDhfPBc0i-109" target="qwokKmORp5SJDhfPBc0i-112">
          <mxGeometry relative="1" as="geometry" />
        </mxCell>
        <mxCell id="qwokKmORp5SJDhfPBc0i-109" value="更新试卷退出状态" style="whiteSpace=wrap;html=1;" vertex="1" parent="1">
          <mxGeometry x="100" y="670" width="120" height="60" as="geometry" />
        </mxCell>
        <mxCell id="qwokKmORp5SJDhfPBc0i-111" value="发生意外退出" style="text;html=1;align=center;verticalAlign=middle;resizable=0;points=[];autosize=1;strokeColor=none;fillColor=none;" vertex="1" parent="1">
          <mxGeometry x="120" y="605" width="100" height="30" as="geometry" />
        </mxCell>
        <mxCell id="qwokKmORp5SJDhfPBc0i-112" value="结束" style="ellipse;whiteSpace=wrap;html=1;" vertex="1" parent="1">
          <mxGeometry x="100" y="810" width="120" height="60" as="geometry" />
        </mxCell>
      </root>
    </mxGraphModel>
  </diagram>
</mxfile>
